<?xml version="1.0" encoding="UTF-8"?>
<svg width="150" height="40" viewBox="0 0 150 40" fill="none" xmlns="http://www.w3.org/2000/svg">
  <path d="M20 5C12.832 5 7 10.832 7 18C7 25.168 12.832 31 20 31C27.168 31 33 25.168 33 18C33 10.832 27.168 5 20 5ZM20 27C15.037 27 11 22.963 11 18C11 13.037 15.037 9 20 9C24.963 9 29 13.037 29 18C29 22.963 24.963 27 20 27Z" fill="#7C3AED"/>
  <circle cx="20" cy="18" r="5" fill="#7C3AED"/>
  <path d="M43 11H46V28H43V11Z" fill="#374151"/>
  <path d="M52 11L61 28H57.5L49 11H52Z" fill="#374151"/>
  <path d="M64 11L73 28H69.5L61 11H64Z" fill="#374151"/>
  <path d="M83 11H86V28H83V25C81.5 27 79.5 28.2 77 28.2C72.6 28.2 69 24.6 69 19.5C69 14.4 72.6 10.8 77 10.8C79.5 10.8 81.5 12 83 14V11ZM77.2 25.2C80.2 25.2 83 22.9 83 19.5C83 16.1 80.2 13.8 77.2 13.8C74.2 13.8 71.8 16.1 71.8 19.5C71.8 22.9 74.2 25.2 77.2 25.2Z" fill="#374151"/>
  <path d="M98 11H101V28H98V25C96.5 27 94.5 28.2 92 28.2C87.6 28.2 84 24.6 84 19.5C84 14.4 87.6 10.8 92 10.8C94.5 10.8 96.5 12 98 14V11ZM92.2 25.2C95.2 25.2 98 22.9 98 19.5C98 16.1 95.2 13.8 92.2 13.8C89.2 13.8 86.8 16.1 86.8 19.5C86.8 22.9 89.2 25.2 92.2 25.2Z" fill="#374151"/>
  <path d="M105 5H108V28H105V5Z" fill="#374151"/>
  <path d="M112 19.5C112 14.4 115.6 10.8 120 10.8C124.4 10.8 128 14.4 128 19.5C128 24.6 124.4 28.2 120 28.2C115.6 28.2 112 24.6 112 19.5ZM125.2 19.5C125.2 16.1 122.8 13.8 120 13.8C117.2 13.8 114.8 16.1 114.8 19.5C114.8 22.9 117.2 25.2 120 25.2C122.8 25.2 125.2 22.9 125.2 19.5Z" fill="#374151"/>
  <path d="M131 5H134V28H131V5Z" fill="#374151"/>
  <path d="M141 11H144V28H141V11ZM141 5H144V8H141V5Z" fill="#374151"/>
</svg> 